<?xml version="1.0" encoding="utf-8"?>
<!-- Generator: Adobe Illustrator 21.1.0, SVG Export Plug-In . SVG Version: 6.00 Build 0)  -->
<svg version="1.1" id="Layer_1" xmlns="http://www.w3.org/2000/svg" xmlns:xlink="http://www.w3.org/1999/xlink" x="0px" y="0px"
	 viewBox="0 0 1280 1024" style="enable-background:new 0 0 1280 1024;" xml:space="preserve">
<style type="text/css">
	.st0{fill:#CCCCCC;}
	.st1{fill:#FFCC33;}
	.st2{fill:#FFD65C;}
	.st3{fill:#FFF5D6;}
	.st4{fill:#FFB4E6;}
	.st5{fill:#BCBCBC;}
	.st6{fill:#CACACA;}
	.st7{fill:#FFFBEF;}
	.st8{fill:#EEEEEE;}
	.st9{fill:#939393;}
	.st10{fill:#8C6946;}
	.st11{fill:#999999;}
	.st12{fill:#FFFFFF;}
	.st13{fill:#FF8E00;}
	.st14{fill:#E08300;}
	.st15{fill:#EFEFEF;}
	.st16{fill:#AFAFAF;}
	.st17{fill:#FCFCFC;}
	.st18{fill:#DFDFDF;}
	.st19{fill:#F2F2F2;}
	.st20{fill:#3E3E3E;}
	.st21{fill:#A1A1A1;}
	.st22{fill:#CFCFCF;}
	.st23{fill:#B0B0B0;}
	.st24{fill:#AAAAAA;}
	.st25{fill:#F5F5F5;}
	.st26{fill:#E8E8E8;}
	.st27{fill:#CC0000;}
	.st28{fill:#D63333;}
	.st29{fill:#BABABA;}
	.st30{fill:#696969;}
	.st31{fill:#222222;}
	.st32{fill:#2A1A00;}
	.st33{fill:#990000;}
	.st34{fill:#0F7800;}
	.st35{fill:#6FAE66;}
	.st36{fill:#C5C5C5;}
	.st37{fill:#373737;}
	.st38{fill:#525252;}
	.st39{fill:#2C2C2C;}
</style>
<g>
	<rect class="st0" width="1280" height="1024"/>
</g>
<rect x="103" y="695.4" class="st1" width="359.7" height="48.9"/>
<rect x="103" y="710.1" class="st2" width="359.7" height="20.3"/>
<polygon class="st3" points="462.8,744.9 462.9,695 506,719.9 "/>
<polygon points="498,724.4 497.8,715 506.3,719.9 "/>
<path class="st4" d="M54.9,744.3H77c6.6,0,12-5.4,12-12v-24.9c0-6.6-5.4-12-12-12H54.9c-6.6,0-12,5.4-12,12v24.9
	C42.9,738.9,48.3,744.3,54.9,744.3z"/>
<g>
	<rect x="72.9" y="695.4" class="st5" width="32.8" height="48.9"/>
</g>
<g>
	<rect x="98.8" y="698.2" class="st6" width="2.1" height="44"/>
</g>
<g>
	<rect x="89" y="698.2" class="st6" width="2.1" height="44"/>
</g>
<g>
	<rect x="77.8" y="698.2" class="st6" width="2.1" height="44"/>
</g>
<g>
	<path class="st3" d="M951,152.6H553.9c-6.6,0-12-5.4-12-12V49.1c0-6.6,5.4-12,12-12H951c6.6,0,12,5.4,12,12v91.5
		C963,147.2,957.6,152.6,951,152.6z"/>
	<ellipse class="st7" cx="555.7" cy="94.8" rx="31.7" ry="57.8"/>
	<g>
		<rect x="958.5" y="81.8" class="st8" width="11.2" height="110.3"/>
	</g>
	<ellipse class="st3" cx="957.3" cy="94.8" rx="31.7" ry="57.8"/>
	<g>
		<rect x="550.8" y="92.2" class="st8" width="11.2" height="99.1"/>
	</g>
	<g>
		<rect x="550.8" y="163.8" class="st8" width="418.8" height="28.3"/>
	</g>
	<g>
		<ellipse class="st9" cx="556.4" cy="94.2" rx="7.1" ry="12.9"/>
	</g>
	<path class="st10" d="M796,208.7c-23.6-0.1-47.1-0.2-70.6-0.2c-11.9,43.8-19.5,109.3-19.5,182.5c0,68.6,6.7,130.5,17.3,174
		c25-0.1,49.9-0.3,74.9-0.1c10.6-43.5,17.3-105.4,17.3-174C815.4,317.9,807.8,252.5,796,208.7z"/>
	<g>
		<rect x="725.2" y="192.1" class="st11" width="71.5" height="17.1"/>
	</g>
</g>
<g>
	<circle class="st12" cx="665.5" cy="742.5" r="123.5"/>
	<path class="st12" d="M854,765h-81c-6.6,0-12-5.4-12-12v-36c0-6.6,5.4-12,12-12h81c6.6,0,12,5.4,12,12v36
		C866,759.6,860.6,765,854,765z"/>
	<circle class="st10" cx="665" cy="742" r="94"/>
</g>
<g>
	<rect x="578.2" y="945" class="st13" width="183.8" height="38"/>
	<ellipse class="st13" cx="577.2" cy="964" rx="9.2" ry="19"/>
	<rect x="582.8" y="949" class="st14" width="137.6" height="5"/>
	<rect x="582.8" y="961" class="st14" width="137.6" height="5"/>
	<rect x="582.8" y="973" class="st14" width="137.6" height="5"/>
	<path class="st14" d="M770,992L770,992c-4.4,0-8-3.6-8-8v-40c0-4.4,3.6-8,8-8l0,0c4.4,0,8,3.6,8,8v40C778,988.4,774.4,992,770,992z
		"/>
	<rect x="781" y="948" class="st15" width="356" height="30"/>
	<g>
		<rect x="778" y="944" class="st16" width="3" height="39"/>
	</g>
	<rect x="781" y="957" class="st17" width="467" height="12"/>
	<g>
		<path class="st18" d="M1147.5,1015L1147.5,1015c-5.8,0-10.5-4.7-10.5-10.5v-80c0-5.8,4.7-10.5,10.5-10.5l0,0
			c5.8,0,10.5,4.7,10.5,10.5v80C1158,1010.3,1153.3,1015,1147.5,1015z"/>
	</g>
	<rect x="1158" y="936" class="st19" width="25" height="56"/>
	<ellipse class="st17" cx="1246" cy="964" rx="9" ry="28"/>
	<g>
		<rect x="831" y="954" width="3" height="24"/>
	</g>
	<g>
		<rect x="876" y="954" width="3" height="24"/>
	</g>
	<g>
		<rect x="920" y="954" width="3" height="24"/>
	</g>
	<g>
		<rect x="966" y="954" width="3" height="24"/>
	</g>
	<g>
		<rect x="1012" y="954" width="3" height="24"/>
	</g>
	<g>
		<rect x="1057" y="954" width="3" height="24"/>
	</g>
	<g>
		<rect x="839" y="964" width="3" height="14"/>
	</g>
	<g>
		<rect x="884" y="964" width="3" height="14"/>
	</g>
	<g>
		<rect x="928" y="964" width="3" height="14"/>
	</g>
	<g>
		<rect x="974" y="964" width="3" height="14"/>
	</g>
	<g>
		<rect x="1020" y="964" width="3" height="14"/>
	</g>
	<g>
		<rect x="848" y="964" width="3" height="14"/>
	</g>
	<g>
		<rect x="893" y="964" width="3" height="14"/>
	</g>
	<g>
		<rect x="937" y="964" width="3" height="14"/>
	</g>
	<g>
		<rect x="983" y="964" width="3" height="14"/>
	</g>
	<g>
		<rect x="1029" y="964" width="3" height="14"/>
	</g>
	<g>
		<rect x="814" y="964" width="3" height="14"/>
	</g>
	<g>
		<rect x="857" y="964" width="3" height="14"/>
	</g>
	<g>
		<rect x="902" y="964" width="3" height="14"/>
	</g>
	<g>
		<rect x="946" y="964" width="3" height="14"/>
	</g>
	<g>
		<rect x="992" y="964" width="3" height="14"/>
	</g>
	<g>
		<rect x="1038" y="964" width="3" height="14"/>
	</g>
	<g>
		<rect x="867" y="964" width="3" height="14"/>
	</g>
	<g>
		<rect x="910" y="964" width="3" height="14"/>
	</g>
	<g>
		<rect x="955" y="964" width="3" height="14"/>
	</g>
	<g>
		<rect x="1001" y="964" width="3" height="14"/>
	</g>
	<g>
		<rect x="1047" y="964" width="3" height="14"/>
	</g>
	<g>
		<rect x="822" y="964" width="3" height="14"/>
	</g>
	<rect x="781" y="951" class="st20" width="25" height="24"/>
	<g>
		<rect x="788" y="954" width="3" height="24"/>
	</g>
	<g>
		<rect x="796" y="964" width="3" height="14"/>
	</g>
	<g>
		<rect x="805" y="964" width="3" height="14"/>
	</g>
</g>
<g>
	<path class="st12" d="M490.2,845.1c-9-18.9-28.9-28.9-48.3-34.1c-8.3-2.2-16.9-3.8-25.5-3.3c-20.5,1.2-38.7,13.6-55.8,25.7
		c-10,7-69.3,49.4-28.3,87.4c8,9.4,18.1,16.5,28,23.5c17.1,12,35.2,24.5,55.7,25.7c8.6,0.5,17.2-1.1,25.5-3.3
		c19.3-5.1,39.3-15.2,48.2-34.1C496,919.4,496.5,858.5,490.2,845.1z"/>
	<path class="st8" d="M382.2,854.5L366,878.3c-2.9,4.2-2.8,11,0.2,15.2l19,26.5c4.8,6.7,12.8,1.7,12.7-7.8l-0.5-49
		C397.2,851.9,387.7,846.4,382.2,854.5z"/>
	<path class="st8" d="M452.6,921.4h-57.5c-6.6,0-12-5.4-12-12V862c0-6.6,5.4-12,12-12h57.5c6.6,0,12,5.4,12,12v47.3
		C464.6,916,459.2,921.4,452.6,921.4z"/>
	<path class="st21" d="M475.3,863.9c0-0.1,0-0.2,0-0.3c0-14.5-20.8-26.3-46.4-26.3s-46.4,11.8-46.4,26.3c0,0.1,0,0.2,0,0.3H475.3z"
		/>
	<path class="st21" d="M475.3,908.1c0,0.1,0,0.2,0,0.3c0,14.8-20.6,26.9-46.1,26.9c-25.5,0-46.1-12-46.1-26.9c0-0.1,0-0.2,0-0.3
		H475.3z"/>
	<rect x="445" y="863.9" class="st21" width="30.3" height="44.2"/>
	<circle class="st22" cx="388.8" cy="886" r="7.6"/>
	<rect x="388.8" y="884.1" class="st12" width="56.2" height="3.2"/>
	<rect x="445" y="884.1" class="st23" width="30.3" height="3.2"/>
	<path class="st24" d="M467.1,860.1c0-0.1,0-0.1,0-0.2c0-10.3-16.4-18.7-36.7-18.7s-36.7,8.4-36.7,18.7c0,0.1,0,0.1,0,0.2H467.1z"/>
	<path class="st24" d="M465.9,911.9c0,0.1,0,0.1,0,0.2c0,10.3-16.4,18.7-36.7,18.7s-36.7-8.4-36.7-18.7c0-0.1,0-0.1,0-0.2H465.9z"/>
</g>
<path class="st25" d="M914.1,887H475.9c-0.5,0-0.9-0.4-0.9-0.9v-1.2c0-0.5,0.4-0.9,0.9-0.9h438.2c0.5,0,0.9,0.4,0.9,0.9v1.2
	C915,886.6,914.6,887,914.1,887z"/>
<path class="st25" d="M913,886.1V335.9c0-0.5,0.4-0.9,0.9-0.9h1.2c0.5,0,0.9,0.4,0.9,0.9v550.2c0,0.5-0.4,0.9-0.9,0.9h-1.2
	C913.4,887,913,886.6,913,886.1z"/>
<path class="st25" d="M1056.1,337H913.9c-0.5,0-0.9-0.4-0.9-0.9v-1.2c0-0.5,0.4-0.9,0.9-0.9h142.2c0.5,0,0.9,0.4,0.9,0.9v1.2
	C1057,336.6,1056.6,337,1056.1,337z"/>
<path class="st25" d="M1054.5,399.1v-64.2c0-0.5,0.4-0.9,0.9-0.9h1.2c0.5,0,0.9,0.4,0.9,0.9v64.2c0,0.5-0.4,0.9-0.9,0.9h-1.2
	C1054.9,400,1054.5,399.6,1054.5,399.1z"/>
<rect x="1054" y="347" class="st26" width="4" height="54"/>
<rect x="0" y="786" class="st3" width="287" height="190"/>
<rect x="283" y="786" width="4" height="159"/>
<rect x="101" y="786" width="4" height="159"/>
<rect x="192" y="786" width="4" height="91.3"/>
<rect x="15" y="786" width="4" height="91.3"/>
<rect x="238" y="786" width="4" height="60.8"/>
<rect x="146" y="786" width="4" height="60.8"/>
<rect x="58" y="786" width="4" height="60.8"/>
<rect x="261" y="786" width="4" height="37.3"/>
<rect x="169" y="786" width="4" height="37.3"/>
<rect x="81" y="786" width="4" height="37.3"/>
<rect x="36" y="786" width="4" height="37.3"/>
<rect x="123" y="786" width="4" height="37.3"/>
<rect x="215" y="786" width="4" height="37.3"/>
<rect x="158" y="786" width="4" height="23.5"/>
<rect x="70" y="786" width="4" height="23.5"/>
<rect x="25" y="786" width="4" height="23.5"/>
<rect x="112" y="786" width="4" height="23.5"/>
<rect x="204" y="786" width="4" height="23.5"/>
<rect x="48" y="786" width="4" height="23.5"/>
<rect x="91" y="786" width="4" height="23.5"/>
<rect x="135" y="786" width="4" height="23.5"/>
<rect x="181" y="786" width="4" height="23.5"/>
<rect x="227" y="786" width="4" height="23.5"/>
<rect x="5" y="786" width="4" height="23.5"/>
<rect x="250" y="786" width="4" height="23.5"/>
<rect x="272" y="786" width="4" height="23.5"/>
<g>
	<path class="st19" d="M639,493.8h-71c-6.6,0-12,5.4-12,12V571c0,6.6,5.4,12,12,12h71c6.6,0,12-5.4,12-12v-65.2
		C651,499.2,645.6,493.8,639,493.8z"/>
	<rect x="556" y="398" class="st27" width="95" height="136.4"/>
	<path class="st12" d="M568,519.2L568,519.2c-6.6,0-12,5.4-12,12V571c0,6.6,5.4,12,12,12l0,0c6.6,0,12-5.4,12-12v-39.9
		C580,524.5,574.6,519.2,568,519.2z"/>
	<rect x="556" y="398" class="st28" width="24" height="136.4"/>
</g>
<path d="M594.8,304c-6.2,1.2-10.4,3.8-10.4,6.7s4.3,5.5,10.4,6.7V304z"/>
<g>
	<rect x="560" y="333.2" class="st29" width="85" height="31.8"/>
	<g>
		<rect x="572.8" y="218.4" class="st8" width="59.4" height="120.8"/>
	</g>
	<g>
		<path class="st8" d="M569.4,339.2L569.4,339.2c-5.2,0-9.4-4.2-9.4-9.4v-24c0-5.2,4.2-9.4,9.4-9.4l0,0c5.2,0,9.4,4.2,9.4,9.4v24
			C578.7,334.9,574.5,339.2,569.4,339.2z"/>
	</g>
	<g>
		<path class="st8" d="M635.6,339.2L635.6,339.2c-5.2,0-9.4-4.2-9.4-9.4v-24c0-5.2,4.2-9.4,9.4-9.4l0,0c5.2,0,9.4,4.2,9.4,9.4v24
			C645,334.9,640.8,339.2,635.6,339.2z"/>
	</g>
	<rect x="594.8" y="218.4" class="st11" width="26.3" height="104.9"/>
	<ellipse class="st11" cx="602.7" cy="323.7" rx="18.4" ry="7.5"/>
	<rect x="584.4" y="218.4" width="10.4" height="104.9"/>
	<circle class="st30" cx="608" cy="278.3" r="3.2"/>
	<ellipse cx="602.5" cy="351.8" rx="23.6" ry="10.2"/>
	<rect x="560.5" y="243.2" class="st29" width="12.4" height="31.8"/>
	<g>
		<path class="st8" d="M569.4,261.1L569.4,261.1c-5.2,0-9.4-4.2-9.4-9.4v-24c0-5.2,4.2-9.4,9.4-9.4l0,0c5.2,0,9.4,4.2,9.4,9.4v24
			C578.7,256.9,574.5,261.1,569.4,261.1z"/>
	</g>
	<rect x="632.1" y="242.2" class="st29" width="12.4" height="31.8"/>
	<g>
		<path class="st8" d="M635.6,261.1L635.6,261.1c-5.2,0-9.4-4.2-9.4-9.4v-24c0-5.2,4.2-9.4,9.4-9.4l0,0c5.2,0,9.4,4.2,9.4,9.4v24
			C645,256.9,640.8,261.1,635.6,261.1z"/>
	</g>
</g>
<g>
	<path class="st31" d="M455.7,217.2H0v33.1h412.6v1.1h73.1c6.6,0,12,5.4,12,12V0h-42V217.2z"/>
</g>
<g>
	<path class="st8" d="M412.6,333.7V466c0,6.6-5.4,12-12,12H0v179h485.7c6.6,0,12-5.4,12-12V333.4L412.6,333.7z M247.9,611.9
		c0,6.6-5.4,12-12,12H90.9c-6.6,0-12-5.4-12-12V522c0-6.6,5.4-12,12-12h145.1c6.6,0,12,5.4,12,12V611.9z"/>
</g>
<g>
	<path class="st8" d="M485.7,283.5H0v17.7h400.6c6.6,0,12,5.4,12,12v20.5l85.1-0.2v-61.9C497.7,278.1,492.3,283.5,485.7,283.5z"/>
</g>
<g>
	<path class="st8" d="M485.7,251.5h-73.1v15.5H0v16.6h485.7c6.6,0,12-5.4,12-12v-8C497.7,256.9,492.3,251.5,485.7,251.5z"/>
</g>
<g>
	<path class="st0" d="M235.9,510H90.9c-6.6,0-12,5.4-12,12v89.8c0,6.6,5.4,12,12,12h145.1c6.6,0,12-5.4,12-12V522
		C247.9,515.4,242.5,510,235.9,510z"/>
</g>
<g>
	<path class="st0" d="M405.9,345.8c0,2.8-2.3,5.1-5.1,5.1h-29.5c-2.8,0-5.1-2.3-5.1-5.1v-12l-4.4,0v12c0,2.8-2.3,5.1-5.1,5.1h-15.2
		c-2.8,0-5.1-2.3-5.1-5.1v-11.9l-6.6,0v11.9c0,2.8-2.3,5.1-5.1,5.1h-15.2c-2.8,0-5.1-2.3-5.1-5.1V334l-6.6,0v11.8
		c0,2.8-2.3,5.1-5.1,5.1h-15.2c-2.8,0-5.1-2.3-5.1-5.1v-11.7l-6.6,0v11.7c0,2.8-2.3,5.1-5.1,5.1h-15.2c-2.8,0-5.1-2.3-5.1-5.1v-11.6
		l-6.6,0v11.6c0,2.8-2.3,5.1-5.1,5.1h-15.2c-2.8,0-5.1-2.3-5.1-5.1v-11.5l-7.7,0v11.5c0,2.8-2.3,5.1-5.1,5.1h-15.2
		c-2.8,0-5.1-2.3-5.1-5.1v-11.4l-6.6,0v11.4c0,2.8-2.3,5.1-5.1,5.1h-15.2c-2.8,0-5.1-2.3-5.1-5.1v-11.3l-6.6,0v11.3
		c0,2.8-2.3,5.1-5.1,5.1H116c-2.8,0-5.1-2.3-5.1-5.1v-11.2l-6.6,0v11.2c0,2.8-2.3,5.1-5.1,5.1H84c-2.8,0-5.1-2.3-5.1-5.1v-11.1
		l-6.6,0v11.1c0,2.8-2.3,5.1-5.1,5.1H52c-2.8,0-5.1-2.3-5.1-5.1v-11.1l-6.6,0v11c0,2.8-2.3,5.1-5.1,5.1H19.9c-2.8,0-5.1-2.3-5.1-5.1
		v-11l-6.6,0v10.9c0,2.8-2.3,5.1-5.1,5.1H0v4.6c0.4-0.1,0.7-0.1,1.1-0.1h15.2c2.8,0,5.1,2.3,5.1,5.1v15.2c0,2.8-2.3,5.1-5.1,5.1H1.1
		c-0.4,0-0.8-0.1-1.1-0.1v4.8c2.1,0.6,3.7,2.6,3.7,4.9v15.2c0,2.3-1.6,4.3-3.7,4.9v34.5h11.9c2.8,0,5.1,2.3,5.1,5.1v16.3
		c0,2.8-2.3,5.1-5.1,5.1H0v6.6h400.6c6.6,0,12-5.4,12-12V333.7l-6.6,0V345.8z M348.5,360.5c0-2.8,2.3-5.1,5.1-5.1h15.2
		c2.8,0,5.1,2.3,5.1,5.1v15.2c0,2.8-2.3,5.1-5.1,5.1h-15.2c-2.8,0-5.1-2.3-5.1-5.1V360.5z M316.4,360.5c0-2.8,2.3-5.1,5.1-5.1h15.2
		c2.8,0,5.1,2.3,5.1,5.1v15.2c0,2.8-2.3,5.1-5.1,5.1h-15.2c-2.8,0-5.1-2.3-5.1-5.1V360.5z M313.1,390.3c0-2.8,2.3-5.1,5.1-5.1h15.2
		c2.8,0,5.1,2.3,5.1,5.1v15.2c0,2.8-2.3,5.1-5.1,5.1h-15.2c-2.8,0-5.1-2.3-5.1-5.1V390.3z M284.4,360.5c0-2.8,2.3-5.1,5.1-5.1h15.2
		c2.8,0,5.1,2.3,5.1,5.1v15.2c0,2.8-2.3,5.1-5.1,5.1h-15.2c-2.8,0-5.1-2.3-5.1-5.1V360.5z M282.9,385.2H298c2.8,0,5.1,2.3,5.1,5.1
		v15.2c0,2.8-2.3,5.1-5.1,5.1h-15.2c-2.8,0-5.1-2.3-5.1-5.1v-15.2C277.8,387.5,280.1,385.2,282.9,385.2z M252.4,360.5
		c0-2.8,2.3-5.1,5.1-5.1h15.2c2.8,0,5.1,2.3,5.1,5.1v15.2c0,2.8-2.3,5.1-5.1,5.1h-15.2c-2.8,0-5.1-2.3-5.1-5.1V360.5z M249.7,385.2
		h15.2c2.8,0,5.1,2.3,5.1,5.1v15.2c0,2.8-2.3,5.1-5.1,5.1h-15.2c-2.8,0-5.1-2.3-5.1-5.1v-15.2C244.6,387.5,246.9,385.2,249.7,385.2z
		 M219.2,360.5c0-2.8,2.3-5.1,5.1-5.1h15.2c2.8,0,5.1,2.3,5.1,5.1v15.2c0,2.8-2.3,5.1-5.1,5.1h-15.2c-2.8,0-5.1-2.3-5.1-5.1V360.5z
		 M187.2,360.5c0-2.8,2.3-5.1,5.1-5.1h15.2c2.8,0,5.1,2.3,5.1,5.1v15.2c0,2.8-2.3,5.1-5.1,5.1h-15.2c-2.8,0-5.1-2.3-5.1-5.1V360.5z
		 M220.7,415c2.8,0,5.1,2.3,5.1,5.1v15.2c0,2.8-2.3,5.1-5.1,5.1h-15.2c-2.8,0-5.1-2.3-5.1-5.1v-15.2c0-2.8,2.3-5.1,5.1-5.1H220.7z
		 M198.6,385.2c2.8,0,5.1,2.3,5.1,5.1v15.2c0,2.8-2.3,5.1-5.1,5.1h-15.2c-2.8,0-5.1-2.3-5.1-5.1v-15.2c0-2.8,2.3-5.1,5.1-5.1H198.6z
		 M192.7,420.1v15.2c0,2.8-2.3,5.1-5.1,5.1h-15.2c-2.8,0-5.1-2.3-5.1-5.1v-15.2c0-2.8,2.3-5.1,5.1-5.1h15.2
		C190.4,415,192.7,417.3,192.7,420.1z M155.1,360.5c0-2.8,2.3-5.1,5.1-5.1h15.2c2.8,0,5.1,2.3,5.1,5.1v15.2c0,2.8-2.3,5.1-5.1,5.1
		h-15.2c-2.8,0-5.1-2.3-5.1-5.1V360.5z M165.5,385.2c2.8,0,5.1,2.3,5.1,5.1v15.2c0,2.8-2.3,5.1-5.1,5.1h-15.2
		c-2.8,0-5.1-2.3-5.1-5.1v-15.2c0-2.8,2.3-5.1,5.1-5.1H165.5z M159.5,420.1v15.2c0,2.8-2.3,5.1-5.1,5.1h-15.2
		c-2.8,0-5.1-2.3-5.1-5.1v-15.2c0-2.8,2.3-5.1,5.1-5.1h15.2C157.2,415,159.5,417.3,159.5,420.1z M123.1,360.5c0-2.8,2.3-5.1,5.1-5.1
		h15.2c2.8,0,5.1,2.3,5.1,5.1v15.2c0,2.8-2.3,5.1-5.1,5.1h-15.2c-2.8,0-5.1-2.3-5.1-5.1V360.5z M132.3,385.2c2.8,0,5.1,2.3,5.1,5.1
		v15.2c0,2.8-2.3,5.1-5.1,5.1h-15.2c-2.8,0-5.1-2.3-5.1-5.1v-15.2c0-2.8,2.3-5.1,5.1-5.1H132.3z M84,410.6c-2.8,0-5.1-2.3-5.1-5.1
		v-15.2c0-2.8,2.3-5.1,5.1-5.1h15.2c2.8,0,5.1,2.3,5.1,5.1v15.2c0,2.8-2.3,5.1-5.1,5.1H84z M91,420.1v15.2c0,2.8-2.3,5.1-5.1,5.1
		H70.7c-2.8,0-5.1-2.3-5.1-5.1v-15.2c0-2.8,2.3-5.1,5.1-5.1h15.2C88.7,415,91,417.3,91,420.1z M101,420.1c0-2.8,2.3-5.1,5.1-5.1
		h15.2c2.8,0,5.1,2.3,5.1,5.1v15.2c0,2.8-2.3,5.1-5.1,5.1h-15.2c-2.8,0-5.1-2.3-5.1-5.1V420.1z M91,360.5c0-2.8,2.3-5.1,5.1-5.1
		h15.2c2.8,0,5.1,2.3,5.1,5.1v15.2c0,2.8-2.3,5.1-5.1,5.1H96.2c-2.8,0-5.1-2.3-5.1-5.1V360.5z M59,360.5c0-2.8,2.3-5.1,5.1-5.1h15.2
		c2.8,0,5.1,2.3,5.1,5.1v15.2c0,2.8-2.3,5.1-5.1,5.1H64.1c-2.8,0-5.1-2.3-5.1-5.1V360.5z M26.9,360.5c0-2.8,2.3-5.1,5.1-5.1h15.2
		c2.8,0,5.1,2.3,5.1,5.1v15.2c0,2.8-2.3,5.1-5.1,5.1H32.1c-2.8,0-5.1-2.3-5.1-5.1V360.5z M11.5,390.3c0-2.8,2.3-5.1,5.1-5.1h15.2
		c2.8,0,5.1,2.3,5.1,5.1v15.2c0,2.8-2.3,5.1-5.1,5.1H16.6c-2.8,0-5.1-2.3-5.1-5.1V390.3z M20.7,440.4H5.6c-2.8,0-5.1-2.3-5.1-5.1
		v-15.2c0-2.8,2.3-5.1,5.1-5.1h15.2c2.8,0,5.1,2.3,5.1,5.1v15.2C25.8,438.1,23.5,440.4,20.7,440.4z M59,466.2c0,2.8-2.3,5.1-5.1,5.1
		h-24c-2.8,0-5.1-2.3-5.1-5.1V450c0-2.8,2.3-5.1,5.1-5.1h24c2.8,0,5.1,2.3,5.1,5.1V466.2z M59,435.3c0,2.8-2.3,5.1-5.1,5.1H38.7
		c-2.8,0-5.1-2.3-5.1-5.1v-15.2c0-2.8,2.3-5.1,5.1-5.1h15.2c2.8,0,5.1,2.3,5.1,5.1V435.3z M48.6,410.6c-2.8,0-5.1-2.3-5.1-5.1v-15.2
		c0-2.8,2.3-5.1,5.1-5.1h15.2c2.8,0,5.1,2.3,5.1,5.1v15.2c0,2.8-2.3,5.1-5.1,5.1H48.6z M229.1,466.2c0,2.8-2.3,5.1-5.1,5.1H69.6
		c-2.8,0-5.1-2.3-5.1-5.1V450c0-2.8,2.3-5.1,5.1-5.1H224c2.8,0,5.1,2.3,5.1,5.1V466.2z M216.6,410.6c-2.8,0-5.1-2.3-5.1-5.1v-15.2
		c0-2.8,2.3-5.1,5.1-5.1h15.2c2.8,0,5.1,2.3,5.1,5.1v15.2c0,2.8-2.3,5.1-5.1,5.1H216.6z M233.6,420.1c0-2.8,2.3-5.1,5.1-5.1h15.2
		c2.8,0,5.1,2.3,5.1,5.1v15.2c0,2.8-2.3,5.1-5.1,5.1h-15.2c-2.8,0-5.1-2.3-5.1-5.1V420.1z M268.9,466.2c0,2.8-2.3,5.1-5.1,5.1h-24
		c-2.8,0-5.1-2.3-5.1-5.1V450c0-2.8,2.3-5.1,5.1-5.1h24c2.8,0,5.1,2.3,5.1,5.1V466.2z M266.7,435.3v-15.2c0-2.8,2.3-5.1,5.1-5.1H287
		c2.8,0,5.1,2.3,5.1,5.1v15.2c0,2.8-2.3,5.1-5.1,5.1h-15.2C269,440.4,266.7,438.1,266.7,435.3z M299.9,466.2c0,2.8-2.3,5.1-5.1,5.1
		h-16.3c-2.8,0-5.1-2.3-5.1-5.1V450c0-2.8,2.3-5.1,5.1-5.1h16.3c2.8,0,5.1,2.3,5.1,5.1V466.2z M299.9,435.3v-15.2
		c0-2.8,2.3-5.1,5.1-5.1h15.2c2.8,0,5.1,2.3,5.1,5.1v15.2c0,2.8-2.3,5.1-5.1,5.1H305C302.2,440.4,299.9,438.1,299.9,435.3z
		 M334.1,465.1c0,2.8-2.3,5.1-5.1,5.1h-16.3c-2.8,0-5.1-2.3-5.1-5.1v-3c0-2.8,2.3-5.1,5.1-5.1H329c2.8,0,5.1,2.3,5.1,5.1V465.1z
		 M368.4,466.2c0,2.8-2.3,5.1-5.1,5.1H347c-2.8,0-5.1-2.3-5.1-5.1V450c0-2.8,2.3-5.1,5.1-5.1h16.3c2.8,0,5.1,2.3,5.1,5.1V466.2z
		 M403.7,465.1c0,2.8-2.3,5.1-5.1,5.1h-16.3c-2.8,0-5.1-2.3-5.1-5.1v-3c0-2.8,2.3-5.1,5.1-5.1h16.3c2.8,0,5.1,2.3,5.1,5.1V465.1z
		 M404.8,435.3c0,2.8-2.3,5.1-5.1,5.1h-59.3c-2.8,0-5.1-2.3-5.1-5.1v-15.2c0-2.8,2.3-5.1,5.1-5.1h59.3c2.8,0,5.1,2.3,5.1,5.1V435.3z
		 M405.9,405.5c0,2.8-2.3,5.1-5.1,5.1h-47.2c-2.8,0-5.1-2.3-5.1-5.1v-15.2c0-2.8,2.3-5.1,5.1-5.1h47.2c2.8,0,5.1,2.3,5.1,5.1V405.5z
		 M405.9,375.6c0,2.8-2.3,5.1-5.1,5.1h-15.2c-2.8,0-5.1-2.3-5.1-5.1v-15.2c0-2.8,2.3-5.1,5.1-5.1h15.2c2.8,0,5.1,2.3,5.1,5.1V375.6z
		"/>
</g>
<g>
	<path class="st0" d="M400.6,301.2H0v6.6h18.5c2.8,0,5.1,2.3,5.1,5.1v3c0,2.8-2.3,5.1-5.1,5.1H0v4.4h3c2.8,0,5.1,2.3,5.1,5.1v4.2
		l6.6,0v-4.2c0-2.8,2.3-5.1,5.1-5.1h15.2c2.8,0,5.1,2.3,5.1,5.1v4.1l6.6,0v-4.1c0-2.8,2.3-5.1,5.1-5.1h15.2c2.8,0,5.1,2.3,5.1,5.1v4
		l6.6,0v-4c0-2.8,2.3-5.1,5.1-5.1h15.2c2.8,0,5.1,2.3,5.1,5.1v3.9l6.6,0v-3.9c0-2.8,2.3-5.1,5.1-5.1h15.2c2.8,0,5.1,2.3,5.1,5.1v3.8
		l6.6,0v-3.8c0-2.8,2.3-5.1,5.1-5.1h15.2c2.8,0,5.1,2.3,5.1,5.1v3.7l6.6,0v-3.7c0-2.8,2.3-5.1,5.1-5.1h15.2c2.8,0,5.1,2.3,5.1,5.1
		v3.7l7.7,0v-3.6c0-2.8,2.3-5.1,5.1-5.1h15.2c2.8,0,5.1,2.3,5.1,5.1v3.6l6.6,0v-3.5c0-2.8,2.3-5.1,5.1-5.1h15.2
		c2.8,0,5.1,2.3,5.1,5.1v3.5l6.6,0v-3.4c0-2.8,2.3-5.1,5.1-5.1h15.2c2.8,0,5.1,2.3,5.1,5.1v3.4l6.6,0v-3.4c0-2.8,2.3-5.1,5.1-5.1
		h15.2c2.8,0,5.1,2.3,5.1,5.1v3.3l6.6,0v-3.3c0-2.8,2.3-5.1,5.1-5.1h15.2c2.8,0,5.1,2.3,5.1,5.1v3.2l4.4,0v-3.2
		c0-2.8,2.3-5.1,5.1-5.1h29.5c2.8,0,5.1,2.3,5.1,5.1v3.1l6.6,0v-20.5C412.6,306.6,407.2,301.2,400.6,301.2z M59,316
		c0,2.8-2.3,5.1-5.1,5.1H34.3c-2.8,0-5.1-2.3-5.1-5.1v-3c0-2.8,2.3-5.1,5.1-5.1h19.6c2.8,0,5.1,2.3,5.1,5.1V316z M94.3,316
		c0,2.8-2.3,5.1-5.1,5.1H69.6c-2.8,0-5.1-2.3-5.1-5.1v-3c0-2.8,2.3-5.1,5.1-5.1h19.6c2.8,0,5.1,2.3,5.1,5.1V316z M128.6,316
		c0,2.8-2.3,5.1-5.1,5.1h-19.6c-2.8,0-5.1-2.3-5.1-5.1v-3c0-2.8,2.3-5.1,5.1-5.1h19.6c2.8,0,5.1,2.3,5.1,5.1V316z M164,316
		c0,2.8-2.3,5.1-5.1,5.1h-19.6c-2.8,0-5.1-2.3-5.1-5.1v-3c0-2.8,2.3-5.1,5.1-5.1h19.6c2.8,0,5.1,2.3,5.1,5.1V316z M198.2,316
		c0,2.8-2.3,5.1-5.1,5.1h-19.6c-2.8,0-5.1-2.3-5.1-5.1v-3c0-2.8,2.3-5.1,5.1-5.1h19.6c2.8,0,5.1,2.3,5.1,5.1V316z M232.5,316
		c0,2.8-2.3,5.1-5.1,5.1h-19.6c-2.8,0-5.1-2.3-5.1-5.1v-3c0-2.8,2.3-5.1,5.1-5.1h19.6c2.8,0,5.1,2.3,5.1,5.1V316z M266.7,316
		c0,2.8-2.3,5.1-5.1,5.1H242c-2.8,0-5.1-2.3-5.1-5.1v-3c0-2.8,2.3-5.1,5.1-5.1h19.6c2.8,0,5.1,2.3,5.1,5.1V316z M301,316
		c0,2.8-2.3,5.1-5.1,5.1h-19.6c-2.8,0-5.1-2.3-5.1-5.1v-3c0-2.8,2.3-5.1,5.1-5.1h19.6c2.8,0,5.1,2.3,5.1,5.1V316z M335.2,316
		c0,2.8-2.3,5.1-5.1,5.1h-19.6c-2.8,0-5.1-2.3-5.1-5.1v-3c0-2.8,2.3-5.1,5.1-5.1h19.6c2.8,0,5.1,2.3,5.1,5.1V316z M370.6,316
		c0,2.8-2.3,5.1-5.1,5.1h-19.6c-2.8,0-5.1-2.3-5.1-5.1v-3c0-2.8,2.3-5.1,5.1-5.1h19.6c2.8,0,5.1,2.3,5.1,5.1V316z M405.9,316
		c0,2.8-2.3,5.1-5.1,5.1h-19.6c-2.8,0-5.1-2.3-5.1-5.1v-3c0-2.8,2.3-5.1,5.1-5.1h19.6c2.8,0,5.1,2.3,5.1,5.1V316z"/>
</g>
<path class="st32" d="M18.5,321.1c2.8,0,5.1-2.3,5.1-5.1v-3c0-2.8-2.3-5.1-5.1-5.1H0v13.3H18.5z"/>
<path class="st32" d="M53.8,307.8H34.3c-2.8,0-5.1,2.3-5.1,5.1v3c0,2.8,2.3,5.1,5.1,5.1h19.6c2.8,0,5.1-2.3,5.1-5.1v-3
	C59,310.1,56.7,307.8,53.8,307.8z"/>
<path class="st32" d="M89.2,307.8H69.6c-2.8,0-5.1,2.3-5.1,5.1v3c0,2.8,2.3,5.1,5.1,5.1h19.6c2.8,0,5.1-2.3,5.1-5.1v-3
	C94.3,310.1,92,307.8,89.2,307.8z"/>
<path class="st32" d="M123.5,307.8h-19.6c-2.8,0-5.1,2.3-5.1,5.1v3c0,2.8,2.3,5.1,5.1,5.1h19.6c2.8,0,5.1-2.3,5.1-5.1v-3
	C128.6,310.1,126.3,307.8,123.5,307.8z"/>
<path class="st32" d="M158.8,307.8h-19.6c-2.8,0-5.1,2.3-5.1,5.1v3c0,2.8,2.3,5.1,5.1,5.1h19.6c2.8,0,5.1-2.3,5.1-5.1v-3
	C164,310.1,161.6,307.8,158.8,307.8z"/>
<path class="st32" d="M193.1,307.8h-19.6c-2.8,0-5.1,2.3-5.1,5.1v3c0,2.8,2.3,5.1,5.1,5.1h19.6c2.8,0,5.1-2.3,5.1-5.1v-3
	C198.2,310.1,195.9,307.8,193.1,307.8z"/>
<path class="st32" d="M227.3,307.8h-19.6c-2.8,0-5.1,2.3-5.1,5.1v3c0,2.8,2.3,5.1,5.1,5.1h19.6c2.8,0,5.1-2.3,5.1-5.1v-3
	C232.5,310.1,230.2,307.8,227.3,307.8z"/>
<path class="st32" d="M261.6,307.8H242c-2.8,0-5.1,2.3-5.1,5.1v3c0,2.8,2.3,5.1,5.1,5.1h19.6c2.8,0,5.1-2.3,5.1-5.1v-3
	C266.7,310.1,264.4,307.8,261.6,307.8z"/>
<path class="st32" d="M295.8,307.8h-19.6c-2.8,0-5.1,2.3-5.1,5.1v3c0,2.8,2.3,5.1,5.1,5.1h19.6c2.8,0,5.1-2.3,5.1-5.1v-3
	C301,310.1,298.7,307.8,295.8,307.8z"/>
<path class="st32" d="M330.1,307.8h-19.6c-2.8,0-5.1,2.3-5.1,5.1v3c0,2.8,2.3,5.1,5.1,5.1h19.6c2.8,0,5.1-2.3,5.1-5.1v-3
	C335.2,310.1,332.9,307.8,330.1,307.8z"/>
<path class="st32" d="M365.4,307.8h-19.6c-2.8,0-5.1,2.3-5.1,5.1v3c0,2.8,2.3,5.1,5.1,5.1h19.6c2.8,0,5.1-2.3,5.1-5.1v-3
	C370.6,310.1,368.3,307.8,365.4,307.8z"/>
<path class="st32" d="M400.8,307.8h-19.6c-2.8,0-5.1,2.3-5.1,5.1v3c0,2.8,2.3,5.1,5.1,5.1h19.6c2.8,0,5.1-2.3,5.1-5.1v-3
	C405.9,310.1,403.6,307.8,400.8,307.8z"/>
<path class="st32" d="M0,350.9h3c2.8,0,5.1-2.3,5.1-5.1v-10.9l-8.2,0V350.9z"/>
<path class="st32" d="M8.2,334.8v-4.2c0-2.8-2.3-5.1-5.1-5.1H0v9.4L8.2,334.8z"/>
<path class="st32" d="M40.2,330.6c0-2.8-2.3-5.1-5.1-5.1H19.9c-2.8,0-5.1,2.3-5.1,5.1v4.2l25.4-0.1V330.6z"/>
<path class="st32" d="M19.9,350.9h15.2c2.8,0,5.1-2.3,5.1-5.1v-11l-25.4,0.1v11C14.8,348.6,17.1,350.9,19.9,350.9z"/>
<path class="st32" d="M52,350.9h15.2c2.8,0,5.1-2.3,5.1-5.1v-11.1l-25.4,0.1v11.1C46.8,348.6,49.1,350.9,52,350.9z"/>
<path class="st32" d="M72.2,330.6c0-2.8-2.3-5.1-5.1-5.1H52c-2.8,0-5.1,2.3-5.1,5.1v4.1l25.4-0.1V330.6z"/>
<path class="st32" d="M84,350.9h15.2c2.8,0,5.1-2.3,5.1-5.1v-11.2l-25.4,0.1v11.1C78.9,348.6,81.2,350.9,84,350.9z"/>
<path class="st32" d="M104.3,330.6c0-2.8-2.3-5.1-5.1-5.1H84c-2.8,0-5.1,2.3-5.1,5.1v4l25.4-0.1V330.6z"/>
<path class="st32" d="M136.3,330.6c0-2.8-2.3-5.1-5.1-5.1H116c-2.8,0-5.1,2.3-5.1,5.1v3.9l25.4-0.1V330.6z"/>
<path class="st32" d="M116,350.9h15.2c2.8,0,5.1-2.3,5.1-5.1v-11.3l-25.4,0.1v11.2C110.9,348.6,113.2,350.9,116,350.9z"/>
<path class="st32" d="M148.1,350.9h15.2c2.8,0,5.1-2.3,5.1-5.1v-11.4l-25.4,0.1v11.3C143,348.6,145.3,350.9,148.1,350.9z"/>
<path class="st32" d="M168.4,330.6c0-2.8-2.3-5.1-5.1-5.1h-15.2c-2.8,0-5.1,2.3-5.1,5.1v3.8l25.4-0.1V330.6z"/>
<path class="st32" d="M200.4,330.6c0-2.8-2.3-5.1-5.1-5.1h-15.2c-2.8,0-5.1,2.3-5.1,5.1v3.7l25.4-0.1V330.6z"/>
<path class="st32" d="M180.1,350.9h15.2c2.8,0,5.1-2.3,5.1-5.1v-11.5l-25.4,0.1v11.4C175,348.6,177.3,350.9,180.1,350.9z"/>
<path class="st32" d="M233.6,330.6c0-2.8-2.3-5.1-5.1-5.1h-15.2c-2.8,0-5.1,2.3-5.1,5.1v3.6l25.4-0.1V330.6z"/>
<path class="st32" d="M213.3,350.9h15.2c2.8,0,5.1-2.3,5.1-5.1v-11.6l-25.4,0.1v11.5C208.2,348.6,210.5,350.9,213.3,350.9z"/>
<path class="st32" d="M265.6,330.6c0-2.8-2.3-5.1-5.1-5.1h-15.2c-2.8,0-5.1,2.3-5.1,5.1v3.5l25.4-0.1V330.6z"/>
<path class="st32" d="M245.3,350.9h15.2c2.8,0,5.1-2.3,5.1-5.1v-11.7l-25.4,0.1v11.6C240.2,348.6,242.5,350.9,245.3,350.9z"/>
<path class="st32" d="M297.7,330.6c0-2.8-2.3-5.1-5.1-5.1h-15.2c-2.8,0-5.1,2.3-5.1,5.1v3.4l25.4-0.1V330.6z"/>
<path class="st32" d="M277.4,350.9h15.2c2.8,0,5.1-2.3,5.1-5.1V334l-25.4,0.1v11.7C272.2,348.6,274.5,350.9,277.4,350.9z"/>
<path class="st32" d="M309.4,350.9h15.2c2.8,0,5.1-2.3,5.1-5.1v-11.9l-25.4,0.1v11.8C304.3,348.6,306.6,350.9,309.4,350.9z"/>
<path class="st32" d="M329.7,330.6c0-2.8-2.3-5.1-5.1-5.1h-15.2c-2.8,0-5.1,2.3-5.1,5.1v3.4l25.4-0.1V330.6z"/>
<path class="st32" d="M341.5,350.9h15.2c2.8,0,5.1-2.3,5.1-5.1v-12l-25.4,0.1v11.9C336.3,348.6,338.6,350.9,341.5,350.9z"/>
<path class="st32" d="M361.7,330.6c0-2.8-2.3-5.1-5.1-5.1h-15.2c-2.8,0-5.1,2.3-5.1,5.1v3.3l25.4-0.1V330.6z"/>
<path class="st32" d="M371.3,350.9h29.5c2.8,0,5.1-2.3,5.1-5.1v-12.1l-39.8,0.1v12C366.2,348.6,368.5,350.9,371.3,350.9z"/>
<path class="st32" d="M405.9,330.6c0-2.8-2.3-5.1-5.1-5.1h-29.5c-2.8,0-5.1,2.3-5.1,5.1v3.2l39.8-0.1V330.6z"/>
<path class="st32" d="M1.1,380.8h15.2c2.8,0,5.1-2.3,5.1-5.1v-15.2c0-2.8-2.3-5.1-5.1-5.1H1.1c-0.4,0-0.8,0.1-1.1,0.1v25.1
	C0.4,380.7,0.7,380.8,1.1,380.8z"/>
<path class="st32" d="M32.1,380.8h15.2c2.8,0,5.1-2.3,5.1-5.1v-15.2c0-2.8-2.3-5.1-5.1-5.1H32.1c-2.8,0-5.1,2.3-5.1,5.1v15.2
	C26.9,378.4,29.2,380.8,32.1,380.8z"/>
<path class="st32" d="M64.1,380.8h15.2c2.8,0,5.1-2.3,5.1-5.1v-15.2c0-2.8-2.3-5.1-5.1-5.1H64.1c-2.8,0-5.1,2.3-5.1,5.1v15.2
	C59,378.4,61.3,380.8,64.1,380.8z"/>
<path class="st32" d="M96.2,380.8h15.2c2.8,0,5.1-2.3,5.1-5.1v-15.2c0-2.8-2.3-5.1-5.1-5.1H96.2c-2.8,0-5.1,2.3-5.1,5.1v15.2
	C91,378.4,93.3,380.8,96.2,380.8z"/>
<path class="st32" d="M128.2,380.8h15.2c2.8,0,5.1-2.3,5.1-5.1v-15.2c0-2.8-2.3-5.1-5.1-5.1h-15.2c-2.8,0-5.1,2.3-5.1,5.1v15.2
	C123.1,378.4,125.4,380.8,128.2,380.8z"/>
<path class="st32" d="M160.2,380.8h15.2c2.8,0,5.1-2.3,5.1-5.1v-15.2c0-2.8-2.3-5.1-5.1-5.1h-15.2c-2.8,0-5.1,2.3-5.1,5.1v15.2
	C155.1,378.4,157.4,380.8,160.2,380.8z"/>
<path class="st32" d="M192.3,380.8h15.2c2.8,0,5.1-2.3,5.1-5.1v-15.2c0-2.8-2.3-5.1-5.1-5.1h-15.2c-2.8,0-5.1,2.3-5.1,5.1v15.2
	C187.2,378.4,189.5,380.8,192.3,380.8z"/>
<path class="st32" d="M224.3,380.8h15.2c2.8,0,5.1-2.3,5.1-5.1v-15.2c0-2.8-2.3-5.1-5.1-5.1h-15.2c-2.8,0-5.1,2.3-5.1,5.1v15.2
	C219.2,378.4,221.5,380.8,224.3,380.8z"/>
<path class="st32" d="M257.5,380.8h15.2c2.8,0,5.1-2.3,5.1-5.1v-15.2c0-2.8-2.3-5.1-5.1-5.1h-15.2c-2.8,0-5.1,2.3-5.1,5.1v15.2
	C252.4,378.4,254.7,380.8,257.5,380.8z"/>
<path class="st32" d="M289.5,380.8h15.2c2.8,0,5.1-2.3,5.1-5.1v-15.2c0-2.8-2.3-5.1-5.1-5.1h-15.2c-2.8,0-5.1,2.3-5.1,5.1v15.2
	C284.4,378.4,286.7,380.8,289.5,380.8z"/>
<path class="st32" d="M321.6,380.8h15.2c2.8,0,5.1-2.3,5.1-5.1v-15.2c0-2.8-2.3-5.1-5.1-5.1h-15.2c-2.8,0-5.1,2.3-5.1,5.1v15.2
	C316.4,378.4,318.7,380.8,321.6,380.8z"/>
<path class="st32" d="M353.6,380.8h15.2c2.8,0,5.1-2.3,5.1-5.1v-15.2c0-2.8-2.3-5.1-5.1-5.1h-15.2c-2.8,0-5.1,2.3-5.1,5.1v15.2
	C348.5,378.4,350.8,380.8,353.6,380.8z"/>
<path class="st32" d="M400.8,355.3h-15.2c-2.8,0-5.1,2.3-5.1,5.1v15.2c0,2.8,2.3,5.1,5.1,5.1h15.2c2.8,0,5.1-2.3,5.1-5.1v-15.2
	C405.9,357.7,403.6,355.3,400.8,355.3z"/>
<path class="st32" d="M400.8,385.2h-47.2c-2.8,0-5.1,2.3-5.1,5.1v15.2c0,2.8,2.3,5.1,5.1,5.1h47.2c2.8,0,5.1-2.3,5.1-5.1v-15.2
	C405.9,387.5,403.6,385.2,400.8,385.2z"/>
<path class="st32" d="M3.7,405.5v-15.2c0-2.3-1.6-4.3-3.7-4.9v25C2.1,409.8,3.7,407.8,3.7,405.5z"/>
<path class="st32" d="M16.6,410.6h15.2c2.8,0,5.1-2.3,5.1-5.1v-15.2c0-2.8-2.3-5.1-5.1-5.1H16.6c-2.8,0-5.1,2.3-5.1,5.1v15.2
	C11.5,408.3,13.8,410.6,16.6,410.6z"/>
<path class="st32" d="M68.9,405.5v-15.2c0-2.8-2.3-5.1-5.1-5.1H48.6c-2.8,0-5.1,2.3-5.1,5.1v15.2c0,2.8,2.3,5.1,5.1,5.1h15.2
	C66.6,410.6,68.9,408.3,68.9,405.5z"/>
<path class="st32" d="M104.3,405.5v-15.2c0-2.8-2.3-5.1-5.1-5.1H84c-2.8,0-5.1,2.3-5.1,5.1v15.2c0,2.8,2.3,5.1,5.1,5.1h15.2
	C102,410.6,104.3,408.3,104.3,405.5z"/>
<path class="st32" d="M112,390.3v15.2c0,2.8,2.3,5.1,5.1,5.1h15.2c2.8,0,5.1-2.3,5.1-5.1v-15.2c0-2.8-2.3-5.1-5.1-5.1h-15.2
	C114.3,385.2,112,387.5,112,390.3z"/>
<path class="st32" d="M145.2,390.3v15.2c0,2.8,2.3,5.1,5.1,5.1h15.2c2.8,0,5.1-2.3,5.1-5.1v-15.2c0-2.8-2.3-5.1-5.1-5.1h-15.2
	C147.5,385.2,145.2,387.5,145.2,390.3z"/>
<path class="st32" d="M178.3,390.3v15.2c0,2.8,2.3,5.1,5.1,5.1h15.2c2.8,0,5.1-2.3,5.1-5.1v-15.2c0-2.8-2.3-5.1-5.1-5.1h-15.2
	C180.6,385.2,178.3,387.5,178.3,390.3z"/>
<path class="st32" d="M236.9,405.5v-15.2c0-2.8-2.3-5.1-5.1-5.1h-15.2c-2.8,0-5.1,2.3-5.1,5.1v15.2c0,2.8,2.3,5.1,5.1,5.1h15.2
	C234.6,410.6,236.9,408.3,236.9,405.5z"/>
<path class="st32" d="M244.6,405.5c0,2.8,2.3,5.1,5.1,5.1h15.2c2.8,0,5.1-2.3,5.1-5.1v-15.2c0-2.8-2.3-5.1-5.1-5.1h-15.2
	c-2.8,0-5.1,2.3-5.1,5.1V405.5z"/>
<path class="st32" d="M277.8,405.5c0,2.8,2.3,5.1,5.1,5.1H298c2.8,0,5.1-2.3,5.1-5.1v-15.2c0-2.8-2.3-5.1-5.1-5.1h-15.2
	c-2.8,0-5.1,2.3-5.1,5.1V405.5z"/>
<path class="st32" d="M318.3,410.6h15.2c2.8,0,5.1-2.3,5.1-5.1v-15.2c0-2.8-2.3-5.1-5.1-5.1h-15.2c-2.8,0-5.1,2.3-5.1,5.1v15.2
	C313.1,408.3,315.4,410.6,318.3,410.6z"/>
<path class="st32" d="M25.8,420.1c0-2.8-2.3-5.1-5.1-5.1H5.6c-2.8,0-5.1,2.3-5.1,5.1v15.2c0,2.8,2.3,5.1,5.1,5.1h15.2
	c2.8,0,5.1-2.3,5.1-5.1V420.1z"/>
<path class="st32" d="M53.8,415H38.7c-2.8,0-5.1,2.3-5.1,5.1v15.2c0,2.8,2.3,5.1,5.1,5.1h15.2c2.8,0,5.1-2.3,5.1-5.1v-15.2
	C59,417.3,56.7,415,53.8,415z"/>
<path class="st32" d="M70.7,415c-2.8,0-5.1,2.3-5.1,5.1v15.2c0,2.8,2.3,5.1,5.1,5.1h15.2c2.8,0,5.1-2.3,5.1-5.1v-15.2
	c0-2.8-2.3-5.1-5.1-5.1H70.7z"/>
<path class="st32" d="M106.1,440.4h15.2c2.8,0,5.1-2.3,5.1-5.1v-15.2c0-2.8-2.3-5.1-5.1-5.1h-15.2c-2.8,0-5.1,2.3-5.1,5.1v15.2
	C101,438.1,103.3,440.4,106.1,440.4z"/>
<path class="st32" d="M139.3,415c-2.8,0-5.1,2.3-5.1,5.1v15.2c0,2.8,2.3,5.1,5.1,5.1h15.2c2.8,0,5.1-2.3,5.1-5.1v-15.2
	c0-2.8-2.3-5.1-5.1-5.1H139.3z"/>
<path class="st32" d="M172.4,415c-2.8,0-5.1,2.3-5.1,5.1v15.2c0,2.8,2.3,5.1,5.1,5.1h15.2c2.8,0,5.1-2.3,5.1-5.1v-15.2
	c0-2.8-2.3-5.1-5.1-5.1H172.4z"/>
<path class="st32" d="M200.4,420.1v15.2c0,2.8,2.3,5.1,5.1,5.1h15.2c2.8,0,5.1-2.3,5.1-5.1v-15.2c0-2.8-2.3-5.1-5.1-5.1h-15.2
	C202.7,415,200.4,417.3,200.4,420.1z"/>
<path class="st32" d="M238.7,440.4h15.2c2.8,0,5.1-2.3,5.1-5.1v-15.2c0-2.8-2.3-5.1-5.1-5.1h-15.2c-2.8,0-5.1,2.3-5.1,5.1v15.2
	C233.6,438.1,235.9,440.4,238.7,440.4z"/>
<path class="st32" d="M292.1,435.3v-15.2c0-2.8-2.3-5.1-5.1-5.1h-15.2c-2.8,0-5.1,2.3-5.1,5.1v15.2c0,2.8,2.3,5.1,5.1,5.1H287
	C289.8,440.4,292.1,438.1,292.1,435.3z"/>
<path class="st32" d="M325.3,435.3v-15.2c0-2.8-2.3-5.1-5.1-5.1H305c-2.8,0-5.1,2.3-5.1,5.1v15.2c0,2.8,2.3,5.1,5.1,5.1h15.2
	C323,440.4,325.3,438.1,325.3,435.3z"/>
<path class="st32" d="M399.7,415h-59.3c-2.8,0-5.1,2.3-5.1,5.1v15.2c0,2.8,2.3,5.1,5.1,5.1h59.3c2.8,0,5.1-2.3,5.1-5.1v-15.2
	C404.8,417.3,402.5,415,399.7,415z"/>
<path class="st32" d="M11.9,471.4c2.8,0,5.1-2.3,5.1-5.1V450c0-2.8-2.3-5.1-5.1-5.1H0v26.5H11.9z"/>
<path class="st32" d="M53.8,444.8h-24c-2.8,0-5.1,2.3-5.1,5.1v16.3c0,2.8,2.3,5.1,5.1,5.1h24c2.8,0,5.1-2.3,5.1-5.1V450
	C59,447.2,56.7,444.8,53.8,444.8z"/>
<path class="st32" d="M224,444.8H69.6c-2.8,0-5.1,2.3-5.1,5.1v16.3c0,2.8,2.3,5.1,5.1,5.1H224c2.8,0,5.1-2.3,5.1-5.1V450
	C229.1,447.2,226.8,444.8,224,444.8z"/>
<path class="st32" d="M263.8,444.8h-24c-2.8,0-5.1,2.3-5.1,5.1v16.3c0,2.8,2.3,5.1,5.1,5.1h24c2.8,0,5.1-2.3,5.1-5.1V450
	C268.9,447.2,266.6,444.8,263.8,444.8z"/>
<path class="st32" d="M294.7,444.8h-16.3c-2.8,0-5.1,2.3-5.1,5.1v16.3c0,2.8,2.3,5.1,5.1,5.1h16.3c2.8,0,5.1-2.3,5.1-5.1V450
	C299.9,447.2,297.6,444.8,294.7,444.8z"/>
<path class="st32" d="M363.2,444.8H347c-2.8,0-5.1,2.3-5.1,5.1v16.3c0,2.8,2.3,5.1,5.1,5.1h16.3c2.8,0,5.1-2.3,5.1-5.1V450
	C368.4,447.2,366.1,444.8,363.2,444.8z"/>
<path class="st32" d="M329,457h-16.3c-2.8,0-5.1,2.3-5.1,5.1v3c0,2.8,2.3,5.1,5.1,5.1H329c2.8,0,5.1-2.3,5.1-5.1v-3
	C334.1,459.3,331.8,457,329,457z"/>
<path class="st32" d="M398.6,457h-16.3c-2.8,0-5.1,2.3-5.1,5.1v3c0,2.8,2.3,5.1,5.1,5.1h16.3c2.8,0,5.1-2.3,5.1-5.1v-3
	C403.7,459.3,401.4,457,398.6,457z"/>
<rect class="st1" width="455.7" height="217.2"/>
<rect y="250.4" class="st31" width="412.6" height="1.1"/>
<rect y="251.5" class="st31" width="412.6" height="15.5"/>
<path class="st27" d="M1241.4,224.5c-9.4,0.9-19.6,0.9-27.5-4.4c-3-2-5.4-4.7-7.8-7.3c-6.5-7.1-13-14.1-19.4-21.2
	c-3.1,1.5-7.2,2.4-11.7,2.4c-9.9,0-18-4.5-18-10c0-3,2.3-5.6,6-7.4V156h20v11.1c7.8-14.1,25-22.8,41.3-27c18-4.6,38.1-5.5,55.2,0.9
	V60.9c-29.1-21.2-65.5-33.9-105-33.9c-95.3,0-172.5,73.4-172.5,164s77.2,164,172.5,164c39.5,0,75.9-12.6,105-33.9V216.8
	C1267.1,220.7,1254.3,223.3,1241.4,224.5z M1069.3,222.9c-4.6-0.3-8.5-4.3-9.6-8.8s0.1-9.4,2.5-13.4l-0.5,0.4
	c0.6-2.3,1.3-4.7,2.9-6.4c1.6-1.7,4.4-2.7,6.4-1.5c3.4,2,2,7.2,2.9,11.1c0.8,3.6,4,6.5,4.3,10.2
	C1078.7,219.1,1073.9,223.2,1069.3,222.9z M1132.2,127.2c-8.8,6.9-17.3,14.9-22.2,25.1c-5.2,10.9-5.8,23.3-6.3,35.4
	c-0.1,3.5-0.3,7-0.4,10.5c-7.1,2.9-15.4-2-18.8-9s-2.8-15.2-1.1-22.8c3.2-14.3,10.1-27.7,19.8-38.5c5.8-6.5,13.1-12.2,21.7-13
	l-0.2-1.2c2.1,1.2,4.5,1.3,6.8,1.9c2.3,0.6,4.7,2,5.2,4.4C1137.2,122.9,1134.5,125.4,1132.2,127.2z"/>
<path class="st33" d="M1163,186v-9.4c-3.7,1.8-6,4.5-6,7.4c0,5.5,8.1,10,18,10c4.5,0,8.5-0.9,11.7-2.4c-1.7-1.9-3.4-3.7-5.2-5.6
	H1163z"/>
<path class="st34" d="M1224.3,140.1c-16.3,4.2-33.5,12.9-41.3,27v8c5.9,1.6,10,5,10,8.9c0,3-2.5,5.8-6.3,7.6
	c6.5,7.1,13,14.1,19.4,21.2c2.4,2.6,4.9,5.3,7.8,7.3c7.8,5.3,18,5.3,27.5,4.4c12.9-1.2,25.7-3.8,38.1-7.7v-30.6
	c-0.9-0.3-1.7-0.7-2.6-1c-4.1-1.5-8.2-2.7-12.4-3.7c-21.1-5.2-42.9-7-64.5-5.5l-0.7-0.7c26.7-4.8,55.5-6.8,80.3,3.7V141
	C1262.5,134.6,1242.3,135.5,1224.3,140.1z"/>
<path class="st34" d="M1193,184c0-3.9-4.1-7.3-10-8.9V186h-1.5c1.7,1.9,3.4,3.7,5.2,5.6C1190.5,189.8,1193,187,1193,184z"/>
<path class="st10" d="M1180,174.4c0.7-2.6,1.8-5,3-7.3V156h-20v20.6c3.2-1.6,7.4-2.6,12-2.6C1176.7,174,1178.4,174.1,1180,174.4z"/>
<path class="st10" d="M1181.5,186c-1.1-1.2-2.2-2.4-3.3-3.6l1.1-5.5c0.2-0.9,0.4-1.7,0.6-2.6c-1.6-0.3-3.3-0.4-5-0.4
	c-4.6,0-8.8,1-12,2.6v9.4H1181.5z"/>
<path class="st10" d="M1183,175.1v-8c-1.3,2.3-2.3,4.7-3,7.3C1181,174.6,1182,174.8,1183,175.1z"/>
<path class="st10" d="M1179.3,177l-1.1,5.5c1.1,1.2,2.2,2.4,3.3,3.6h1.5v-10.9c-1-0.3-2-0.5-3-0.7
	C1179.7,175.2,1179.5,176.1,1179.3,177z"/>
<path class="st35" d="M1199.2,175.4l0.7,0.7c21.6-1.5,43.5,0.3,64.5,5.5c4.2,1,8.4,2.2,12.4,3.7c0.9,0.3,1.7,0.7,2.6,1V179
	C1254.7,168.6,1226,170.6,1199.2,175.4z"/>
<path class="st28" d="M1131.4,115.6c-2.3-0.6-4.8-0.7-6.8-1.9l0.2,1.2c-8.5,0.8-15.9,6.6-21.7,13c-9.7,10.8-16.6,24.2-19.8,38.5
	c-1.7,7.6-2.3,15.8,1.1,22.8s11.7,11.8,18.8,9c0.1-3.5,0.3-7,0.4-10.5c0.5-12.1,1.1-24.5,6.3-35.4c4.9-10.2,13.4-18.2,22.2-25.1
	c2.3-1.8,5-4.3,4.4-7.2C1136.2,117.6,1133.7,116.2,1131.4,115.6z"/>
<path class="st28" d="M1073.9,204.3c-0.9-3.9,0.5-9.1-2.9-11.1c-2-1.2-4.8-0.3-6.4,1.5c-1.6,1.7-2.3,4.1-2.9,6.4l0.5-0.4
	c-2.3,4-3.6,8.9-2.5,13.4s5,8.5,9.6,8.8c4.6,0.3,9.4-3.8,8.9-8.4C1077.9,210.8,1074.7,207.9,1073.9,204.3z"/>
<path class="st31" d="M1018.6,492v-11c0-1,0.1-2,0.4-3c1.3-5.2,6-9,11.6-9h90.4h158.5v-30H1121v-38h-0.6c-4.2,7.3-31.2,13-63.9,13
	c-32.7,0-59.7-5.7-63.9-13H992v50v27v414c0,6.6,5.4,12,12,12h275.5v-43h-248.9c-6.6,0-12-5.4-12-12V679V492z"/>
<path class="st36" d="M1120.4,401c0.4-0.7,0.6-1.3,0.6-2c0-3.3-4.6-6.4-12.5-8.9c0.7,3.5,1.1,7.1,1.2,10.9H1120.4z"/>
<path class="st36" d="M1001,400c0.1-3.1,0.4-6.1,1-9c-6.3,2.3-10,5.1-10,8c0,0.7,0.2,1.3,0.6,2h82.9L1001,400z"/>
<path class="st36" d="M1056.5,414c32.7,0,59.7-5.7,63.9-13h-10.7c0,0.2,0,0.3,0,0.5l-34.2-0.5h-82.9
	C996.8,408.3,1023.8,414,1056.5,414z"/>
<path class="st37" d="M1018.6,679v170c0,6.6,5.4,12,12,12h248.9V679H1018.6z M1080.2,730.4l-17.5,17.9c-5.9,6-16.2,1.9-16.3-6.5
	L1046,705c-0.1-7.2,8.6-10.9,13.7-5.8L1080,719C1083.2,722.1,1083.3,727.2,1080.2,730.4z M1221.4,777.4l-56.4,56.4
	c-4.7,4.7-12.3,4.7-17,0l-55.9-55.9c-4.7-4.7-4.7-12.3,0-17l56.4-56.4c4.7-4.7,12.3-4.7,17,0l55.9,55.9
	C1226,765,1226,772.7,1221.4,777.4z M1258.3,748.6l-20.4-19.9c-3.2-3.1-3.3-8.2-0.2-11.4l17.4-17.9c5.9-6.1,16.2-2,16.3,6.5
	l0.5,36.8C1272.1,749.9,1263.5,753.6,1258.3,748.6z"/>
<path class="st37" d="M1121,469h-90.4c-5.6,0-10.3,3.8-11.6,9c-0.3,1-0.4,2-0.4,3v11h260.9v-23H1121z"/>
<rect x="1018.6" y="492" class="st38" width="260.9" height="187"/>
<path class="st31" d="M1165.5,704.5c-4.7-4.7-12.3-4.7-17,0l-56.4,56.4c-4.7,4.7-4.7,12.3,0,17l55.9,55.9c4.7,4.7,12.3,4.7,17,0
	l56.4-56.4c4.7-4.7,4.7-12.3,0-17L1165.5,704.5z M1157,793c-13.8,0-25-11.2-25-25s11.2-25,25-25s25,11.2,25,25S1170.8,793,1157,793z
	"/>
<path class="st39" d="M1059.9,699.2c-5.2-5.1-14-1.4-13.9,5.9l0.4,37.4c0.1,8.6,10.6,12.8,16.6,6.7l17.8-18.2
	c3.2-3.2,3.1-8.4-0.1-11.6L1059.9,699.2z"/>
<path class="st39" d="M1271.5,706.2c-0.1-8.6-10.6-12.8-16.6-6.6l-17.7,18.2c-3.2,3.2-3.1,8.4,0.2,11.6l20.8,20.2
	c5.2,5.1,14,1.3,13.9-6L1271.5,706.2z"/>
<circle class="st15" cx="1157" cy="768" r="25"/>
<path class="st15" d="M1108.5,390.1c-5.1-24.4-26.5-42.8-52.4-43.1c-26.7-0.4-49.2,18.6-54.1,44c-0.6,2.9-0.9,5.9-1,9l74.5,1h34.2
	C1109.6,397.3,1109.3,393.6,1108.5,390.1z"/>
<path class="st15" d="M1109.7,401.5c0-0.2,0-0.3,0-0.5h-34.2L1109.7,401.5z"/>
</svg>
