<?xml version="1.0" encoding="utf-8"?>
<!-- Generator: Adobe Illustrator 21.1.0, SVG Export Plug-In . SVG Version: 6.00 Build 0)  -->
<svg version="1.1" id="Layer_1" xmlns="http://www.w3.org/2000/svg" xmlns:xlink="http://www.w3.org/1999/xlink" x="0px" y="0px"
	 viewBox="0 0 100 100" style="enable-background:new 0 0 100 100;" xml:space="preserve">
<style type="text/css">
	.st0{fill:#CCCCCB;}
	.st1{fill:#4858A7;}
	.st2{fill:#FFFFFF;}
</style>
<rect x="0.2" y="-0.1" class="st0" width="100" height="100"/>
<path class="st1" d="M88,99.6H12.2c-6.6,0-12-5.4-12-12V11.9c0-6.6,5.4-12,12-12H88c6.6,0,12,5.4,12,12v75.8
	C100,94.2,94.6,99.6,88,99.6z"/>
<polygon class="st2" points="78,40.7 78,40.7 44,40.7 44,51 76.3,51 "/>
<path class="st2" d="M62,17.6c-3.6,0-6.5,2.9-6.5,6.5V28v0.8v35.8h10.8V29.5c0-0.7,0.6-1.3,1.3-1.3h6.9h3.2h0.6V17.6H62z"/>
<rect x="55.4" y="54.2" class="st2" width="10.8" height="45.5"/>
</svg>
