<?xml version="1.0" encoding="utf-8"?>
<!-- Generator: Adobe Illustrator 21.1.0, SVG Export Plug-In . SVG Version: 6.00 Build 0)  -->
<svg version="1.1" id="Layer_1" xmlns="http://www.w3.org/2000/svg" xmlns:xlink="http://www.w3.org/1999/xlink" x="0px" y="0px"
	 viewBox="0 0 100 100" style="enable-background:new 0 0 100 100;" xml:space="preserve">
<style type="text/css">
	.st0{fill:#CCCCCB;}
	.st1{fill:#8D6A47;}
	.st2{fill:#F3F2EC;}
	.st3{fill:#AEAFAD;}
	.st4{fill:#4D4D4D;}
	.st5{fill:#5D5D5D;}
	.st6{fill:#858585;}
	.st7{fill:#EF3D23;}
	.st8{fill:#72C8F1;}
	.st9{fill:#46B865;}
	.st10{fill:#FFCD34;}
	.st11{fill:#E6E2D9;}
	.st12{fill:#474747;}
</style>
<rect x="0" class="st0" width="100" height="100"/>
<path class="st1" d="M88.2,100.3H12c-6.6,0-12-5.4-12-12V12.1c0-6.6,5.4-12,12-12h76.2c6.6,0,12,5.4,12,12v76.2
	C100.2,94.9,94.8,100.3,88.2,100.3z"/>
<path class="st2" d="M0,36v56.2c0,4.5,3.7,8.1,8.1,8.1H92c4.5,0,8.1-3.7,8.1-8.1V36H0z"/>
<path class="st3" d="M72.4,36c2.6,4,4.1,8.8,4.1,13.9c0,14-11.3,25.4-25.3,25.4c-8.6,0-16.2-4.3-20.8-10.9l20.7,35.9h40.9
	c4.5,0,8.1-3.7,8.1-8.1v-8.3L72.6,36H72.4z"/>
<circle class="st4" cx="81.9" cy="19.1" r="7.4"/>
<circle class="st5" cx="81.9" cy="19.1" r="4.1"/>
<circle class="st6" cx="81.9" cy="19.1" r="2"/>
<rect x="11.1" y="0.1" class="st7" width="6.1" height="35.9"/>
<rect x="29.4" y="0.1" class="st8" width="6.1" height="35.9"/>
<rect x="23.3" y="0.1" class="st9" width="6.1" height="35.9"/>
<rect x="17.2" y="0.1" class="st10" width="6.1" height="35.9"/>
<circle class="st11" cx="51.1" cy="49.8" r="25.4"/>
<circle class="st12" cx="50.8" cy="49.5" r="19.6"/>
<circle class="st5" cx="50.8" cy="49.5" r="12.2"/>
<circle class="st4" cx="50.8" cy="49.5" r="6.1"/>
<circle class="st6" cx="57.9" cy="41" r="4.4"/>
</svg>
